<svg width="94" height="94" viewBox="0 0 94 94" fill="none" xmlns="http://www.w3.org/2000/svg">
<g clip-path="url(#clip0_219_61)">
<path fill-rule="evenodd" clip-rule="evenodd" d="M38.5255 30.606C40.0391 30.606 41.2662 31.8331 41.2662 33.3467C41.2662 34.8603 40.0391 36.0875 38.5255 36.0875C37.012 36.0875 35.7847 34.8603 35.7847 33.3467C35.7847 31.8331 37.012 30.606 38.5255 30.606Z" fill="#FEFEFE"/>
<path fill-rule="evenodd" clip-rule="evenodd" d="M55.1632 30.606C56.6767 30.606 57.9038 31.8331 57.9038 33.3467C57.9038 34.8603 56.6767 36.0875 55.1632 36.0875C53.6496 36.0875 52.4224 34.8603 52.4224 33.3467C52.4224 31.8331 53.6496 30.606 55.1632 30.606Z" fill="#FEFEFE"/>
<path fill-rule="evenodd" clip-rule="evenodd" d="M19.4139 26.3379H19.439C20.2698 26.3379 20.9496 27.0176 20.9496 27.8485V38.6424C20.9496 39.4733 20.2698 40.153 19.439 40.153H19.4139C18.583 40.153 17.9032 39.4733 17.9032 38.6424V27.8485C17.9032 27.0176 18.583 26.3379 19.4139 26.3379Z" fill="#FBBC05"/>
<path fill-rule="evenodd" clip-rule="evenodd" d="M74.3205 26.3379H74.3457C75.1765 26.3379 75.8563 27.0176 75.8563 27.8485V38.6424C75.8563 39.4733 75.1765 40.153 74.3457 40.153H74.3205C73.4897 40.153 72.8099 39.4733 72.8099 38.6424V27.8485C72.8099 27.0176 73.4897 26.3379 74.3205 26.3379Z" fill="#FBBC05"/>
<path fill-rule="evenodd" clip-rule="evenodd" d="M32.6937 18.0488C49.6969 18.0488 43.7709 18.0488 60.7118 18.0488C64.4044 18.0488 67.4256 21.07 67.4256 24.7626V50.2302C67.4256 53.9227 64.4027 56.8411 60.7118 56.9441L53.0327 57.1586C51.1536 59.9872 47.943 65.063 46.7788 65.0501C45.884 65.0275 42.4964 59.9872 40.6723 57.1586L32.6937 56.9441C29.0026 56.8449 25.98 53.9228 25.98 50.2302V24.7626C25.98 21.07 29.0011 18.0488 32.6937 18.0488ZM59.9708 54.2693C63.2275 54.2149 65.0169 51.9415 65.0169 48.6842V26.2205C65.0169 22.9633 62.3522 20.2986 59.095 20.2986H34.3816C31.1244 20.2986 28.4597 22.9633 28.4597 26.2205V48.6842C28.4597 51.9413 31.0892 54.3074 34.3464 54.3074L42.1688 54.5358C43.6653 57.2186 45.7658 61.2907 46.8879 61.0332C47.6625 61.4462 49.8796 57.0855 51.3781 54.4128L59.9708 54.2693Z" fill="#FEFEFE"/>
<path d="M19.5422 71.7728L24.1663 71.7463L24.1531 73.1375L19.5554 73.164L19.5422 71.7728ZM19.6747 75.7345L24.9216 75.7212L24.9084 77.1654H17.9655L17.992 67.8906H24.7361L24.7228 69.3216L19.688 69.3348L19.6747 75.7345ZM26.856 77.1654L26.8428 67.8906H30.8972C31.9041 67.8906 32.7874 68.085 33.547 68.4736C34.3068 68.8623 34.8986 69.4011 35.3225 70.0901C35.7466 70.7791 35.9541 71.5917 35.9453 72.528C35.9541 73.4555 35.7466 74.266 35.3225 74.9593C34.8986 75.6528 34.3068 76.1937 33.547 76.5824C32.7874 76.9711 31.9041 77.1654 30.8972 77.1654H26.856ZM28.5652 75.7079H30.8177C31.5154 75.7079 32.1183 75.5755 32.6262 75.3104C33.1341 75.0454 33.5272 74.6745 33.8055 74.1975C34.0837 73.7205 34.2272 73.164 34.2361 72.528C34.2272 71.8832 34.0837 71.3245 33.8055 70.8519C33.5272 70.3794 33.1341 70.0106 32.6262 69.7456C32.1183 69.4806 31.5154 69.3481 30.8177 69.3481H28.5652V75.7079ZM41.7752 77.298C40.5031 77.298 39.5072 76.9402 38.7874 76.2247C38.0674 75.5092 37.7075 74.4757 37.7075 73.1243V67.8906H39.4299V73.058C39.4299 74.012 39.6353 74.7054 40.046 75.1382C40.4568 75.5711 41.0375 75.7875 41.7884 75.7875C42.5392 75.7875 43.1178 75.5711 43.5241 75.1382C43.9304 74.7054 44.1336 74.012 44.1336 73.058V67.8906H45.8296V73.1243C45.8296 74.4757 45.4696 75.5092 44.7497 76.2247C44.0298 76.9402 43.0382 77.298 41.7752 77.298Z" fill="#FBBC05"/>
<path d="M48.241 77.1655V67.8907H52.5869C53.6999 67.8907 54.5479 68.1094 55.1309 68.5466C55.7138 68.9839 56.0053 69.569 56.0053 70.3022C56.0053 70.7968 55.8905 71.2186 55.6608 71.5676C55.4312 71.9165 55.1242 72.1859 54.74 72.3758C54.3557 72.5656 53.9384 72.6607 53.4878 72.6607L53.7264 72.1836C54.2475 72.1836 54.7157 72.2786 55.1309 72.4685C55.546 72.6584 55.8751 72.9345 56.1179 73.2966C56.3608 73.6588 56.4823 74.1093 56.4823 74.6481C56.4823 75.4431 56.1775 76.0614 55.568 76.503C54.9586 76.9447 54.0531 77.1655 52.8519 77.1655H48.241ZM49.9635 75.8141H52.7459C53.3907 75.8141 53.8854 75.7081 54.2299 75.4961C54.5744 75.2841 54.7466 74.944 54.7466 74.4758C54.7466 74.0165 54.5744 73.6787 54.2299 73.4622C53.8854 73.2458 53.3907 73.1376 52.7459 73.1376H49.8309V71.7995H52.4014C53.002 71.7995 53.4636 71.6934 53.786 71.4815C54.1084 71.2694 54.2696 70.9515 54.2696 70.5274C54.2696 70.0947 54.1084 69.7723 53.786 69.5602C53.4636 69.3482 53.002 69.2423 52.4014 69.2423H49.9635V75.8141ZM62.6434 77.2848C61.9456 77.2937 61.2897 77.1788 60.6758 76.9403C60.0619 76.7018 59.5297 76.3683 59.0792 75.94C58.6288 75.5115 58.282 75.0058 58.0391 74.4229C57.7962 73.8399 57.6748 73.2083 57.6748 72.5281C57.6659 71.8391 57.7852 71.2076 58.0325 70.6335C58.2799 70.0593 58.6309 69.5558 59.0859 69.123C59.5408 68.6901 60.0707 68.3567 60.6758 68.1226C61.2809 67.8886 61.9412 67.7671 62.6567 67.7583C63.381 67.7583 64.0456 67.8775 64.6507 68.116C65.2558 68.3545 65.7813 68.688 66.2275 69.1163C66.6735 69.5448 67.0202 70.0482 67.2676 70.6268C67.5149 71.2054 67.6385 71.8391 67.6385 72.5281C67.6473 73.2172 67.5281 73.8531 67.2808 74.4361C67.0334 75.019 66.6846 75.5226 66.234 75.9465C65.7836 76.3706 65.2558 76.7018 64.6507 76.9403C64.0456 77.1788 63.3765 77.2937 62.6434 77.2848ZM62.6434 75.8008C63.1204 75.792 63.5577 75.7103 63.9551 75.5557C64.3526 75.4012 64.6971 75.1737 64.9886 74.8733C65.2801 74.573 65.5075 74.2263 65.671 73.8332C65.8344 73.4401 65.9205 73.0051 65.9293 72.5281C65.9205 72.0512 65.8366 71.6139 65.6776 71.2165C65.5186 70.8189 65.2911 70.4723 64.9952 70.1764C64.6993 69.8804 64.3548 69.653 63.9618 69.494C63.5687 69.335 63.1292 69.2554 62.6434 69.2554C62.184 69.2643 61.7557 69.3461 61.3582 69.5006C60.9607 69.6552 60.614 69.8804 60.3181 70.1764C60.0221 70.4723 59.7925 70.8189 59.6291 71.2165C59.4657 71.6139 59.384 72.0512 59.384 72.5281C59.3928 72.9963 59.4768 73.4313 59.6357 73.8332C59.7948 74.2352 60.0221 74.5819 60.3181 74.8733C60.614 75.1648 60.9607 75.3923 61.3582 75.5557C61.7557 75.7192 62.184 75.8008 62.6434 75.8008ZM71.2425 77.1655L71.2292 69.3482L68.1553 69.335V67.8907H76.0124L76.0255 69.3482L72.9251 69.335L72.9517 77.1655H71.2425Z" fill="#FEFEFE"/>
<path d="M26.157 84.1573V80.4928L24.7222 80.4867V79.9726H28.1775L28.1835 80.4928L26.7488 80.4867V84.1573H26.157ZM29.3791 81.784L31.5312 81.778L31.5252 82.2803L29.3791 82.2862V81.784ZM29.427 83.6433L31.872 83.6372V84.1573H28.8351L28.8411 79.9726H31.7883V80.4867L29.4329 80.4928L29.427 83.6433ZM34.7056 84.2052C34.3868 84.2052 34.0928 84.1524 33.8238 84.0467C33.5548 83.9411 33.3217 83.7917 33.1244 83.5984C32.9271 83.4051 32.7727 83.1789 32.661 82.9198C32.5495 82.6609 32.4937 82.3759 32.4937 82.065C32.4937 81.7541 32.5495 81.4692 32.661 81.2102C32.7727 80.9511 32.9281 80.7249 33.1274 80.5316C33.3266 80.3383 33.5608 80.1888 33.8298 80.0833C34.0988 79.9776 34.3927 79.9248 34.7115 79.9248C35.0343 79.9248 35.3323 79.9796 35.6053 80.0892C35.8783 80.1988 36.1105 80.3612 36.3017 80.5764L35.9132 80.9531C35.7537 80.7857 35.5744 80.6611 35.3751 80.5794C35.1759 80.4977 34.9626 80.4568 34.7355 80.4568C34.5003 80.4568 34.2822 80.4967 34.0809 80.5764C33.8796 80.6561 33.7053 80.7678 33.5578 80.9112C33.4103 81.0547 33.2957 81.2251 33.214 81.4223C33.1323 81.6196 33.0915 81.8338 33.0915 82.065C33.0915 82.2961 33.1323 82.5104 33.214 82.7077C33.2957 82.9049 33.4103 83.0753 33.5578 83.2188C33.7053 83.3623 33.8796 83.4739 34.0809 83.5536C34.2822 83.6333 34.5003 83.6731 34.7355 83.6731C34.9626 83.6731 35.1759 83.6323 35.3751 83.5506C35.5744 83.4689 35.7537 83.3424 35.9132 83.1709L36.3017 83.5476C36.1105 83.7628 35.8783 83.9262 35.6053 84.0378C35.3323 84.1494 35.0324 84.2052 34.7056 84.2052ZM40.1576 79.9726H40.7495L40.7555 84.1573H40.1636L40.1576 79.9726ZM37.7544 84.1573H37.1626L37.1567 79.9726H37.7485L37.7544 84.1573ZM40.2115 82.2862L37.6946 82.2922V81.778L40.2115 81.7721V82.2862ZM42.0109 84.1573V79.9726H42.5011L45.269 83.41H45.0119V79.9726H45.6097V84.1573H45.1195L42.3517 80.7199H42.6087V84.1573H42.0109ZM48.7483 84.2052C48.4334 84.2052 48.1394 84.1513 47.8665 84.0438C47.5935 83.9362 47.3574 83.7857 47.1581 83.5924C46.9588 83.3991 46.8044 83.173 46.6948 82.9139C46.5852 82.6548 46.5284 82.3719 46.5244 82.065C46.5284 81.7581 46.5852 81.4751 46.6948 81.2161C46.8044 80.957 46.9598 80.7308 47.1611 80.5376C47.3623 80.3443 47.5974 80.1938 47.8665 80.0862C48.1355 79.9787 48.4294 79.9248 48.7483 79.9248C49.0711 79.9248 49.367 79.9787 49.636 80.0862C49.905 80.1938 50.1401 80.3433 50.3414 80.5346C50.5427 80.7259 50.6981 80.952 50.8077 81.2131C50.9173 81.4742 50.9721 81.7581 50.9721 82.065C50.9721 82.3759 50.9173 82.6609 50.8077 82.9198C50.6981 83.1789 50.5427 83.4041 50.3414 83.5954C50.1401 83.7867 49.905 83.9362 49.636 84.0438C49.367 84.1513 49.0711 84.2052 48.7483 84.2052ZM48.7483 83.6731C48.9834 83.6731 49.1996 83.6333 49.3969 83.5536C49.5942 83.4739 49.7656 83.3613 49.911 83.2157C50.0565 83.0703 50.17 82.8999 50.2517 82.7047C50.3335 82.5093 50.3743 82.2961 50.3743 82.065C50.3743 81.8338 50.3344 81.6207 50.2547 81.4253C50.175 81.2301 50.0615 81.0597 49.914 80.9142C49.7665 80.7687 49.5942 80.6561 49.3969 80.5764C49.1996 80.4967 48.9834 80.4568 48.7483 80.4568C48.5171 80.4568 48.3019 80.4967 48.1026 80.5764C47.9033 80.6561 47.731 80.7687 47.5855 80.9142C47.4401 81.0597 47.3264 81.2291 47.2448 81.4223C47.1631 81.6157 47.1222 81.8299 47.1222 82.065C47.1222 82.2961 47.1631 82.5093 47.2448 82.7047C47.3264 82.8999 47.441 83.0703 47.5885 83.2157C47.736 83.3613 47.9083 83.4739 48.1056 83.5536C48.3029 83.6333 48.5171 83.6731 48.7483 83.6731ZM51.8927 84.1573L51.8868 79.9726H52.4786L52.4845 83.6372L54.7503 83.6433V84.1573H51.8927ZM57.2432 84.2052C56.9283 84.2052 56.6343 84.1513 56.3613 84.0438C56.0884 83.9362 55.8522 83.7857 55.653 83.5924C55.4537 83.3991 55.2992 83.173 55.1896 82.9139C55.08 82.6548 55.0233 82.3719 55.0193 82.065C55.0233 81.7581 55.08 81.4751 55.1896 81.2161C55.2992 80.957 55.4547 80.7308 55.656 80.5376C55.8572 80.3443 56.0923 80.1938 56.3613 80.0862C56.6304 79.9787 56.9243 79.9248 57.2432 79.9248C57.566 79.9248 57.8619 79.9787 58.1309 80.0862C58.3999 80.1938 58.635 80.3433 58.8363 80.5346C59.0375 80.7259 59.193 80.952 59.3026 81.2131C59.4122 81.4742 59.467 81.7581 59.467 82.065C59.467 82.3759 59.4122 82.6609 59.3026 82.9198C59.193 83.1789 59.0375 83.4041 58.8363 83.5954C58.635 83.7867 58.3999 83.9362 58.1309 84.0438C57.8619 84.1513 57.566 84.2052 57.2432 84.2052ZM57.2432 83.6731C57.4783 83.6731 57.6945 83.6333 57.8918 83.5536C58.0891 83.4739 58.2604 83.3613 58.4058 83.2157C58.5514 83.0703 58.6649 82.8999 58.7466 82.7047C58.8284 82.5093 58.8692 82.2961 58.8692 82.065C58.8692 81.8338 58.8293 81.6207 58.7496 81.4253C58.6699 81.2301 58.5563 81.0597 58.4089 80.9142C58.2614 80.7687 58.0891 80.6561 57.8918 80.5764C57.6945 80.4967 57.4783 80.4568 57.2432 80.4568C57.012 80.4568 56.7968 80.4967 56.5975 80.5764C56.3982 80.6561 56.2259 80.7687 56.0804 80.9142C55.935 81.0597 55.8213 81.2291 55.7396 81.4223C55.6579 81.6157 55.6171 81.8299 55.6171 82.065C55.6171 82.2961 55.6579 82.5093 55.7396 82.7047C55.8213 82.8999 55.9359 83.0703 56.0834 83.2157C56.2309 83.3613 56.4032 83.4739 56.6005 83.5536C56.7978 83.6333 57.012 83.6731 57.2432 83.6731ZM62.2707 84.2052C61.9479 84.2052 61.6509 84.1524 61.3799 84.0467C61.1089 83.9411 60.8738 83.7917 60.6745 83.5984C60.4753 83.4051 60.3199 83.1789 60.2082 82.9198C60.0966 82.6609 60.0409 82.3759 60.0409 82.065C60.0409 81.7541 60.0966 81.4692 60.2082 81.2102C60.3199 80.9511 60.4763 80.7249 60.6775 80.5316C60.8788 80.3383 61.1149 80.1888 61.3859 80.0833C61.6569 79.9776 61.9558 79.9248 62.2827 79.9248C62.6135 79.9248 62.9163 79.9787 63.1913 80.0862C63.4663 80.1938 63.6995 80.3552 63.8907 80.5705L63.5201 80.9411C63.3487 80.7737 63.1624 80.6511 62.9612 80.5735C62.7599 80.4958 62.5417 80.4568 62.3066 80.4568C62.0674 80.4568 61.8452 80.4967 61.64 80.5764C61.4347 80.6561 61.2574 80.7678 61.108 80.9112C60.9585 81.0547 60.8429 81.2251 60.7612 81.4223C60.6795 81.6196 60.6386 81.8338 60.6386 82.065C60.6386 82.2922 60.6795 82.5043 60.7612 82.7017C60.8429 82.899 60.9585 83.0703 61.108 83.2157C61.2574 83.3613 61.4338 83.4739 61.637 83.5536C61.8402 83.6333 62.0614 83.6731 62.3005 83.6731C62.5238 83.6731 62.738 83.6383 62.9432 83.5685C63.1484 83.4988 63.3388 83.3822 63.5142 83.2188L63.8549 83.6731C63.6477 83.8485 63.4055 83.981 63.1286 84.0707C62.8516 84.1603 62.5656 84.2052 62.2707 84.2052ZM63.281 83.5954V82.0411H63.8549V83.6731L63.281 83.5954ZM66.0071 84.1573V82.5552L66.1445 82.9258L64.3451 79.9726H64.9847L66.4973 82.4655H66.1505L67.669 79.9726H68.2608L66.4674 82.9258L66.5989 82.5552V84.1573H66.0071Z" fill="#FEFEFE"/>
<path fill-rule="evenodd" clip-rule="evenodd" d="M39.7953 11.402V11.3768C39.7953 10.546 40.4751 9.86621 41.3059 9.86621H52.0999C52.9307 9.86621 53.6104 10.546 53.6104 11.3768V11.402C53.6104 12.2328 52.9307 12.9126 52.0999 12.9126H41.3059C40.4751 12.9126 39.7953 12.2328 39.7953 11.402Z" fill="#FBBC05"/>
<path fill-rule="evenodd" clip-rule="evenodd" d="M39.7953 42.7282C39.7953 42.7199 39.7953 42.7114 39.7953 42.703C39.7953 41.8723 40.7779 40.914 41.7208 41.5096C45.615 43.9696 47.8702 43.6748 51.3679 41.7292C52.5766 41.0568 53.6104 41.8723 53.6104 42.703C53.6104 42.7114 53.6104 42.7199 53.6104 42.7282C53.6104 43.5591 52.8543 43.8907 52.0999 44.2388C48.4168 45.938 44.8159 46.0007 41.3059 44.2388C40.5633 43.8661 39.7953 43.5591 39.7953 42.7282Z" fill="#FEFEFE"/>
</g>
<defs>
<clipPath id="clip0_219_61">
<rect width="94" height="94" fill="white"/>
</clipPath>
</defs>
</svg>
